<?xml version="1.0" encoding="UTF-8"?><svg xmlns="http://www.w3.org/2000/svg" xmlns:xlink="http://www.w3.org/1999/xlink" width="375" zoomAndPan="magnify" viewBox="0 0 375 374.999991" height="374.999991" preserveAspectRatio="xMidYMid meet" version="1.0"><defs><clipPath id="clip-0"><path d="M 112.5 116 L 262 116 L 262 259.21875 L 112.5 259.21875 Z M 112.5 116 " clip-rule="nonzero"/></clipPath></defs><g clip-path="url(#clip-0)"><path fill="rgb(100%, 100%, 100%)" d="M 165.796875 219.261719 L 233.246094 219.261719 C 233.976562 219.257812 234.699219 219.191406 235.421875 219.066406 C 236.140625 218.945312 236.847656 218.761719 237.535156 218.523438 C 238.226562 218.285156 238.894531 217.992188 239.535156 217.640625 C 240.179688 217.292969 240.789062 216.894531 241.367188 216.449219 C 241.945312 216 242.480469 215.507812 242.976562 214.972656 C 243.476562 214.4375 243.925781 213.863281 244.328125 213.253906 C 244.734375 212.644531 245.085938 212.003906 245.382812 211.335938 C 245.683594 210.671875 245.925781 209.984375 246.113281 209.277344 L 261.765625 151.621094 C 261.878906 151.148438 261.882812 150.675781 261.777344 150.199219 C 261.671875 149.726562 261.46875 149.296875 261.171875 148.917969 C 260.515625 148.195312 259.703125 147.789062 258.734375 147.707031 L 142.871094 147.707031 L 134.933594 118.5 C 134.847656 118.164062 134.710938 117.855469 134.519531 117.570312 C 134.328125 117.28125 134.09375 117.035156 133.816406 116.828125 C 133.542969 116.625 133.238281 116.46875 132.910156 116.367188 C 132.582031 116.265625 132.246094 116.21875 131.898438 116.234375 L 112.699219 116.234375 L 112.699219 122.5625 L 129.554688 122.5625 L 137.269531 151.433594 L 137.269531 151.628906 L 152.9375 209.28125 C 153.054688 209.574219 153.226562 209.976562 153.386719 210.367188 L 158.722656 230.304688 C 157.5 230.953125 156.390625 231.753906 155.386719 232.703125 C 154.382812 233.65625 153.523438 234.722656 152.808594 235.90625 C 152.09375 237.089844 151.550781 238.34375 151.171875 239.675781 C 150.796875 241.007812 150.605469 242.363281 150.59375 243.746094 L 150.59375 246.988281 L 150.976562 246.988281 C 151.148438 247.835938 151.390625 248.667969 151.703125 249.476562 C 152.015625 250.285156 152.394531 251.058594 152.84375 251.800781 C 153.289062 252.546875 153.792969 253.246094 154.363281 253.902344 C 154.929688 254.558594 155.546875 255.160156 156.214844 255.707031 C 156.886719 256.257812 157.597656 256.746094 158.351562 257.171875 C 159.105469 257.597656 159.890625 257.957031 160.707031 258.25 C 161.523438 258.539062 162.359375 258.761719 163.210938 258.90625 C 164.066406 259.054688 164.925781 259.128906 165.789062 259.128906 C 166.804688 259.128906 167.804688 259.03125 168.800781 258.835938 C 169.792969 258.640625 170.757812 258.351562 171.695312 257.964844 C 172.632812 257.578125 173.523438 257.105469 174.367188 256.546875 C 175.210938 255.988281 175.992188 255.351562 176.714844 254.636719 C 177.433594 253.921875 178.078125 253.148438 178.644531 252.308594 C 179.214844 251.46875 179.695312 250.582031 180.089844 249.648438 C 180.484375 248.714844 180.785156 247.75 180.988281 246.757812 C 181.195312 245.765625 181.300781 244.761719 181.3125 243.746094 C 181.273438 242.117188 180.988281 240.53125 180.460938 238.988281 C 179.929688 237.445312 179.183594 236.019531 178.214844 234.707031 L 220.8125 234.707031 C 219.84375 236.015625 219.097656 237.445312 218.566406 238.988281 C 218.035156 240.527344 217.75 242.117188 217.710938 243.746094 C 217.71875 244.761719 217.828125 245.765625 218.03125 246.757812 C 218.238281 247.75 218.539062 248.714844 218.933594 249.648438 C 219.328125 250.582031 219.808594 251.46875 220.378906 252.308594 C 220.945312 253.148438 221.589844 253.925781 222.308594 254.640625 C 223.03125 255.351562 223.8125 255.988281 224.65625 256.550781 C 225.503906 257.109375 226.394531 257.582031 227.332031 257.964844 C 228.269531 258.351562 229.234375 258.640625 230.226562 258.835938 C 231.222656 259.03125 232.226562 259.128906 233.238281 259.128906 C 234.105469 259.128906 234.964844 259.058594 235.820312 258.910156 C 236.671875 258.761719 237.507812 258.542969 238.324219 258.25 C 239.140625 257.960938 239.925781 257.601562 240.683594 257.175781 C 241.4375 256.746094 242.148438 256.257812 242.820312 255.710938 C 243.492188 255.160156 244.109375 254.558594 244.675781 253.902344 C 245.242188 253.246094 245.75 252.542969 246.195312 251.800781 C 246.640625 251.054688 247.023438 250.28125 247.335938 249.46875 C 247.648438 248.660156 247.886719 247.832031 248.058594 246.980469 L 248.441406 246.980469 L 248.441406 243.738281 C 248.449219 242.734375 248.359375 241.738281 248.171875 240.75 C 247.980469 239.761719 247.699219 238.804688 247.320312 237.875 C 246.941406 236.941406 246.476562 236.058594 245.925781 235.21875 C 245.371094 234.378906 244.742188 233.601562 244.035156 232.886719 C 243.332031 232.171875 242.5625 231.535156 241.730469 230.972656 C 240.898438 230.410156 240.019531 229.933594 239.09375 229.546875 C 238.164062 229.160156 237.210938 228.867188 236.226562 228.667969 C 235.242188 228.46875 234.25 228.367188 233.246094 228.363281 L 165.796875 228.363281 C 165.554688 228.363281 165.214844 228.460938 164.761719 228.496094 L 162.109375 218.585938 C 163.300781 219.023438 164.53125 219.25 165.796875 219.261719 Z M 165.796875 252.945312 C 165.199219 252.941406 164.609375 252.878906 164.027344 252.757812 C 163.441406 252.632812 162.875 252.457031 162.328125 252.222656 C 161.777344 251.992188 161.257812 251.707031 160.761719 251.371094 C 160.269531 251.039062 159.8125 250.65625 159.394531 250.230469 C 158.972656 249.808594 158.601562 249.34375 158.273438 248.847656 C 157.941406 248.347656 157.664062 247.824219 157.441406 247.269531 C 157.214844 246.71875 157.042969 246.148438 156.929688 245.5625 C 156.816406 244.976562 156.761719 244.382812 156.761719 243.785156 C 156.765625 243.1875 156.824219 242.597656 156.941406 242.011719 C 157.058594 241.425781 157.234375 240.859375 157.464844 240.308594 C 157.691406 239.753906 157.972656 239.230469 158.304688 238.734375 C 158.636719 238.238281 159.015625 237.78125 159.4375 237.359375 C 159.859375 236.933594 160.316406 236.558594 160.8125 236.226562 C 161.308594 235.894531 161.832031 235.613281 162.382812 235.382812 C 162.933594 235.15625 163.5 234.980469 164.085938 234.863281 C 164.671875 234.746094 165.261719 234.6875 165.859375 234.6875 C 166.453125 234.683594 167.046875 234.742188 167.628906 234.855469 C 168.214844 234.96875 168.785156 235.140625 169.335938 235.367188 C 169.890625 235.59375 170.414062 235.871094 170.910156 236.199219 C 171.410156 236.53125 171.871094 236.90625 172.292969 237.324219 C 172.71875 237.746094 173.097656 238.203125 173.429688 238.695312 C 173.765625 239.191406 174.050781 239.714844 174.28125 240.261719 C 174.511719 240.8125 174.691406 241.382812 174.8125 241.964844 C 174.929688 242.550781 174.996094 243.140625 175 243.738281 C 175.015625 244.347656 174.96875 244.953125 174.863281 245.554688 C 174.757812 246.15625 174.589844 246.738281 174.363281 247.304688 C 174.140625 247.871094 173.859375 248.410156 173.523438 248.917969 C 173.191406 249.425781 172.808594 249.898438 172.375 250.328125 C 171.945312 250.761719 171.476562 251.144531 170.96875 251.480469 C 170.460938 251.816406 169.921875 252.097656 169.359375 252.324219 C 168.792969 252.546875 168.210938 252.714844 167.609375 252.824219 C 167.011719 252.929688 166.40625 252.976562 165.796875 252.960938 Z M 233.246094 252.945312 C 232.644531 252.960938 232.046875 252.921875 231.453125 252.816406 C 230.859375 252.714844 230.28125 252.558594 229.722656 252.339844 C 229.160156 252.125 228.625 251.855469 228.117188 251.53125 C 227.609375 251.210938 227.136719 250.839844 226.699219 250.425781 C 226.265625 250.011719 225.875 249.554688 225.53125 249.0625 C 225.183594 248.570312 224.890625 248.046875 224.648438 247.496094 C 224.40625 246.941406 224.21875 246.375 224.089844 245.785156 C 223.960938 245.195312 223.890625 244.601562 223.878906 244 C 223.867188 243.398438 223.914062 242.800781 224.019531 242.207031 C 224.125 241.613281 224.289062 241.035156 224.511719 240.476562 C 224.730469 239.914062 225.003906 239.382812 225.328125 238.875 C 225.65625 238.367188 226.027344 237.898438 226.445312 237.464844 C 226.863281 237.035156 227.320312 236.644531 227.816406 236.304688 C 228.3125 235.960938 228.835938 235.671875 229.390625 235.433594 C 229.941406 235.195312 230.511719 235.011719 231.101562 234.886719 C 231.691406 234.761719 232.285156 234.695312 232.886719 234.691406 C 233.488281 234.683594 234.085938 234.734375 234.675781 234.84375 C 235.265625 234.957031 235.84375 235.125 236.402344 235.347656 C 236.957031 235.574219 237.488281 235.851562 237.992188 236.183594 C 238.496094 236.511719 238.960938 236.890625 239.390625 237.3125 C 239.820312 237.734375 240.203125 238.195312 240.539062 238.691406 C 240.878906 239.191406 241.164062 239.71875 241.398438 240.273438 C 241.632812 240.828125 241.808594 241.402344 241.929688 241.992188 C 242.050781 242.582031 242.109375 243.179688 242.113281 243.78125 C 242.128906 244.375 242.082031 244.964844 241.980469 245.550781 C 241.875 246.132812 241.71875 246.703125 241.5 247.257812 C 241.285156 247.808594 241.015625 248.335938 240.695312 248.835938 C 240.375 249.335938 240.007812 249.800781 239.597656 250.226562 C 239.183594 250.65625 238.734375 251.035156 238.246094 251.375 C 237.757812 251.710938 237.238281 251.996094 236.695312 252.230469 C 236.148438 252.464844 235.585938 252.644531 235.007812 252.769531 C 234.425781 252.890625 233.839844 252.953125 233.246094 252.960938 Z M 233.246094 252.945312 " fill-opacity="1" fill-rule="nonzero"/></g></svg>